<svg xmlns="http://www.w3.org/2000/svg" width="97.035" height="34.75" viewBox="0 0 97.035 34.75">
  <g id="Group_7" data-name="Group 7" transform="translate(-916.74 -52.225)">
    <path id="question-line" d="M19.375,36.75A17.375,17.375,0,1,1,36.75,19.375,17.375,17.375,0,0,1,19.375,36.75Zm0-3.475a13.9,13.9,0,1,0-13.9-13.9A13.9,13.9,0,0,0,19.375,33.275Zm-1.737-8.688h3.475v3.475H17.637Zm3.475-2.858V22.85H17.637V20.244a1.737,1.737,0,0,1,1.737-1.737,2.606,2.606,0,1,0-2.556-3.117l-3.408-.682a6.082,6.082,0,1,1,7.7,7.022Z" transform="translate(914.74 50.225)" fill="#fff"/>
    <path id="notification-2-line" d="M34.326,31.093H2V27.861H3.616V16.6a14.547,14.547,0,1,1,29.093,0V27.861h1.616ZM6.849,27.861H29.477V16.6a11.314,11.314,0,1,0-22.628,0Zm7.273,4.849H22.2a4.041,4.041,0,1,1-8.081,0Z" transform="translate(979.449 50.225)" fill="#fff"/>
  </g>
</svg>
